<?xml version="1.0" encoding="UTF-8"?>
<svg viewBox="0 0 166 142" version="1.1" xmlns="http://www.w3.org/2000/svg" xmlns:xlink="http://www.w3.org/1999/xlink">
    <defs>
        <path d="M134.743504,10.1513086 L166.427714,66.1513086 C169.885062,72.2619694 169.885062,79.7380306 166.427714,85.8486914 L134.743504,141.848691 C131.194226,148.121833 124.544127,152 117.336514,152 L54.6634858,152 C47.4558733,152 40.805774,148.121833 37.2564964,141.848691 L5.5722859,85.8486914 C2.11493838,79.7380306 2.11493838,72.2619694 5.5722859,66.1513086 L37.2564964,10.1513086 C40.805774,3.87816694 47.4558733,4.87673062e-15 54.6634858,3.55271368e-15 L117.336514,1.77635684e-14 C124.544127,2.28411973e-14 131.194226,3.87816694 134.743504,10.1513086 Z" id="path-1"></path>
        <linearGradient x1="31.2187958%" y1="0%" x2="68.7812042%" y2="100%" id="linearGradient-3">
            <stop stop-color="#7381FF" offset="0%"></stop>
            <stop stop-color="#3D4FF2" offset="100%"></stop>
        </linearGradient>
        <linearGradient x1="50%" y1="17.1625128%" x2="0%" y2="82.8374872%" id="linearGradient-4">
            <stop stop-color="#3646D6" offset="0%"></stop>
            <stop stop-color="#00109C" offset="100%"></stop>
        </linearGradient>
        <linearGradient x1="33.3321978%" y1="32.6452737%" x2="68.5160792%" y2="67.3547263%" id="linearGradient-5">
            <stop stop-color="#3A4BE8" offset="0%"></stop>
            <stop stop-color="#2D3BB5" offset="100%"></stop>
        </linearGradient>
    </defs>
    <g id="Page-1" stroke="none" stroke-width="1" fill="none" fill-rule="evenodd">
        <g id="Logomark---blue" transform="translate(-3.000000, -10.000000)">
            <mask id="mask-2" fill="white">
                <use xlink:href="#path-1"></use>
            </mask>
            <g id="Path"></g>
            <path d="M86,76 L90,76 L47,152 L43,152 L-2.84217094e-14,76 L34.2965053,15.3829208 C37.0161463,10.5761134 43.1175383,8.88413081 47.9243457,11.6037718 C49.5035958,12.4972949 50.8099716,13.8036707 51.7034947,15.3829208 L86,76 Z" id="Combined-Shape" fill="url(#linearGradient-3)" mask="url(#mask-2)"></path>
            <path d="M137.703495,15.3829208 L172,76 L172,80 L86,80 L86,76 L120.296505,15.3829208 C123.016146,10.5761134 129.117538,8.88413081 133.924346,11.6037718 C135.503596,12.4972949 136.809972,13.8036707 137.703495,15.3829208 Z" id="Polygon-Copy-3" fill="url(#linearGradient-4)" mask="url(#mask-2)"></path>
            <polygon id="Path" fill="url(#linearGradient-5)" mask="url(#mask-2)" points="86 76 172 76 129 152 43 152"></polygon>
        </g>
    </g>
</svg>
